<?xml version="1.0" encoding="UTF-8" standalone="no"?>
<svg
   xmlns:dc="http://purl.org/dc/elements/1.1/"
   xmlns:cc="http://creativecommons.org/ns#"
   xmlns:rdf="http://www.w3.org/1999/02/22-rdf-syntax-ns#"
   xmlns:svg="http://www.w3.org/2000/svg"
   xmlns="http://www.w3.org/2000/svg"
   xmlns:xlink="http://www.w3.org/1999/xlink"
   xmlns:sodipodi="http://sodipodi.sourceforge.net/DTD/sodipodi-0.dtd"
   xmlns:inkscape="http://www.inkscape.org/namespaces/inkscape"
   width="210mm"
   height="297mm"
   viewBox="0 0 210 297"
   version="1.1"
   id="svg2294"
   inkscape:version="1.0.2-2 (e86c870879, 2021-01-15)"
   sodipodi:docname="game.svg">
  <defs
     id="defs2288">
    <linearGradient
       inkscape:collect="always"
       id="linearGradient3167">
      <stop
         style="stop-color:#ffffff;stop-opacity:1;"
         offset="0"
         id="stop3163" />
      <stop
         style="stop-color:#000000;stop-opacity:1"
         offset="1"
         id="stop3165" />
    </linearGradient>
    <linearGradient
       inkscape:collect="always"
       id="linearGradient3152">
      <stop
         style="stop-color:#000000;stop-opacity:1;"
         offset="0"
         id="stop3148" />
      <stop
         style="stop-color:#ffffff;stop-opacity:1"
         offset="1"
         id="stop3150" />
    </linearGradient>
    <linearGradient
       inkscape:collect="always"
       id="linearGradient3111">
      <stop
         style="stop-color:#000000;stop-opacity:1;"
         offset="0"
         id="stop3107" />
      <stop
         style="stop-color:#ffffff;stop-opacity:1"
         offset="1"
         id="stop3109" />
    </linearGradient>
    <linearGradient
       inkscape:collect="always"
       id="linearGradient3103">
      <stop
         style="stop-color:#000000;stop-opacity:1;"
         offset="0"
         id="stop3099" />
      <stop
         style="stop-color:#ff0000;stop-opacity:1"
         offset="1"
         id="stop3101" />
    </linearGradient>
    <linearGradient
       inkscape:collect="always"
       id="linearGradient3075">
      <stop
         style="stop-color:#ffffff;stop-opacity:1;"
         offset="0"
         id="stop3071" />
      <stop
         style="stop-color:#deaa87;stop-opacity:1"
         offset="1"
         id="stop3073" />
    </linearGradient>
    <linearGradient
       inkscape:collect="always"
       id="linearGradient2895">
      <stop
         style="stop-color:#000000;stop-opacity:1;"
         offset="0"
         id="stop2891" />
      <stop
         style="stop-color:#000000;stop-opacity:0;"
         offset="1"
         id="stop2893" />
    </linearGradient>
    <filter
       inkscape:label="Cracked Glass"
       inkscape:menu="Textures"
       inkscape:menu-tooltip="Under a cracked glass"
       style="color-interpolation-filters:sRGB;"
       id="filter2322">
      <feTurbulence
         baseFrequency="0.1"
         seed="50"
         numOctaves="5"
         result="result1"
         type="fractalNoise"
         id="feTurbulence2298" />
      <feGaussianBlur
         stdDeviation="4"
         result="result7"
         id="feGaussianBlur2300" />
      <feDisplacementMap
         result="result5"
         in="SourceGraphic"
         scale="20"
         xChannelSelector="G"
         in2="result7"
         id="feDisplacementMap2302" />
      <feComposite
         result="result2"
         operator="in"
         in2="result1"
         in="result5"
         id="feComposite2304" />
      <feGaussianBlur
         stdDeviation="1"
         result="result6"
         id="feGaussianBlur2306" />
      <feSpecularLighting
         surfaceScale="-3"
         result="result4"
         specularConstant="3.5"
         specularExponent="35"
         in="result6"
         id="feSpecularLighting2310">
        <feDistantLight
           elevation="45"
           azimuth="225"
           id="feDistantLight2308" />
      </feSpecularLighting>
      <feComposite
         k1="1.7"
         k3="0.7"
         in2="result2"
         in="result4"
         operator="arithmetic"
         result="result91"
         id="feComposite2312" />
      <feBlend
         result="fbSourceGraphic"
         mode="multiply"
         in2="result91"
         id="feBlend2314" />
      <feComposite
         in2="fbSourceGraphic"
         in="fbSourceGraphic"
         result="result2"
         operator="arithmetic"
         id="feComposite2316" />
      <feComposite
         in="result2"
         result="result4"
         operator="arithmetic"
         k2="2"
         k3="2"
         in2="fbSourceGraphic"
         id="feComposite2318" />
      <feBlend
         mode="screen"
         in="result4"
         in2="result4"
         id="feBlend2320" />
    </filter>
    <linearGradient
       inkscape:collect="always"
       xlink:href="#linearGradient2895"
       id="linearGradient2897"
       x1="107.44234"
       y1="172.52249"
       x2="108.51144"
       y2="112.65411"
       gradientUnits="userSpaceOnUse"
       gradientTransform="translate(-0.53453906,-0.80180858)" />
    <radialGradient
       inkscape:collect="always"
       xlink:href="#linearGradient2895"
       id="radialGradient3023"
       cx="408.27582"
       cy="557.0517"
       fx="408.27582"
       fy="557.0517"
       r="157.97716"
       gradientTransform="matrix(1,0,0,0.73245085,0,149.03871)"
       gradientUnits="userSpaceOnUse" />
    <radialGradient
       inkscape:collect="always"
       xlink:href="#linearGradient3075"
       id="radialGradient3077"
       cx="106.99267"
       cy="115.91842"
       fx="106.99267"
       fy="115.91842"
       r="51.048477"
       gradientTransform="matrix(0.14290313,1.4399496,-0.97905766,0.20566385,208.04901,-33.280417)"
       gradientUnits="userSpaceOnUse" />
    <radialGradient
       inkscape:collect="always"
       xlink:href="#linearGradient3103"
       id="radialGradient3105"
       cx="94.736786"
       cy="185.05473"
       fx="94.736786"
       fy="185.05473"
       r="74.89181"
       gradientTransform="matrix(1.468561,0.0154626,-0.02458454,2.3349185,-27.440518,-220.38668)"
       gradientUnits="userSpaceOnUse" />
    <radialGradient
       inkscape:collect="always"
       xlink:href="#linearGradient3111"
       id="radialGradient3113-7"
       cx="80.683533"
       cy="88.767471"
       fx="80.683533"
       fy="88.767471"
       r="20"
       gradientUnits="userSpaceOnUse"
       gradientTransform="matrix(4.7492802,-3.1827235,-1.0828357,-1.6158132,-213.01103,535.65921)" />
    <radialGradient
       inkscape:collect="always"
       xlink:href="#linearGradient3152"
       id="radialGradient3154"
       cx="106.81326"
       cy="116.86248"
       fx="106.81326"
       fy="116.86248"
       r="20"
       gradientUnits="userSpaceOnUse"
       gradientTransform="matrix(2.0855921,0.06240904,-0.24967155,7.4017366,-88.880129,-681.73839)" />
    <radialGradient
       inkscape:collect="always"
       xlink:href="#linearGradient3167"
       id="radialGradient3169"
       cx="84.667091"
       cy="143.01991"
       fx="84.667091"
       fy="143.01991"
       r="3.3408689"
       gradientTransform="matrix(0.92329771,0.00517147,-0.00632934,1.3448192,15.020451,-56.787067)"
       gradientUnits="userSpaceOnUse" />
    <radialGradient
       inkscape:collect="always"
       xlink:href="#linearGradient3167"
       id="radialGradient3169-4"
       cx="84.667091"
       cy="143.01991"
       fx="84.667091"
       fy="143.01991"
       r="3.3408689"
       gradientTransform="matrix(0.92329771,0.00517147,-0.00632934,1.3448192,47.159613,-55.584358)"
       gradientUnits="userSpaceOnUse" />
    <radialGradient
       inkscape:collect="always"
       xlink:href="#linearGradient3152"
       id="radialGradient3113-7-7"
       cx="80.683533"
       cy="88.767471"
       fx="80.683533"
       fy="88.767471"
       r="20"
       gradientUnits="userSpaceOnUse"
       gradientTransform="matrix(-4.7492802,-3.1827235,1.0828357,-1.6158132,426.29497,534.05155)" />
  </defs>
  <sodipodi:namedview
     id="base"
     pagecolor="#ffffff"
     bordercolor="#666666"
     borderopacity="1.0"
     inkscape:pageopacity="0.0"
     inkscape:pageshadow="2"
     inkscape:zoom="1.979899"
     inkscape:cx="376.16922"
     inkscape:cy="755.52216"
     inkscape:document-units="mm"
     inkscape:current-layer="layer5"
     inkscape:document-rotation="0"
     showgrid="false"
     inkscape:window-width="1920"
     inkscape:window-height="1017"
     inkscape:window-x="1672"
     inkscape:window-y="-8"
     inkscape:window-maximized="1" />
  <metadata
     id="metadata2291">
    <rdf:RDF>
      <cc:Work
         rdf:about="">
        <dc:format>image/svg+xml</dc:format>
        <dc:type
           rdf:resource="http://purl.org/dc/dcmitype/StillImage" />
        <dc:title></dc:title>
      </cc:Work>
    </rdf:RDF>
  </metadata>
  <g
     inkscape:label="Warstwa 1"
     inkscape:groupmode="layer"
     id="layer1">
    <path
       id="rect2296"
       style="fill:#999999;stroke-width:0.999999;filter:url(#filter2322)"
       transform="scale(0.26458333)"
       d="M 8.2792969,16.136719 V 1110.4238 H 785.42188 V 16.136719 Z M 196.15039,836.10547 c 0.0206,-0.0118 0.0527,-0.004 0.0762,0.0371 0.15257,0.26434 0.32897,0.51428 0.50196,0.76562 0.3576,0.51731 0.71341,1.03693 1.07031,1.55469 0.45309,0.65378 0.90543,1.30756 1.34765,1.96875 0.30612,0.4501 0.59275,0.91173 0.875,1.37695 0.18892,0.30777 0.36927,0.62223 0.54883,0.93555 0.11947,0.20727 0.23521,0.41486 0.34961,0.625 0.0779,0.14672 0.16164,0.29117 0.24414,0.43555 0.0303,0.0514 0.058,0.10371 0.0859,0.15625 0.0441,0.0828 -0.0399,0.12769 -0.084,0.0449 -0.0275,-0.0518 -0.0561,-0.10403 -0.0859,-0.1543 -0.0828,-0.14464 -0.16395,-0.2901 -0.24219,-0.4375 -0.1141,-0.2095 -0.23048,-0.4163 -0.34961,-0.62304 -0.17918,-0.31257 -0.3603,-0.62438 -0.54883,-0.93164 -0.28154,-0.46406 -0.56574,-0.92608 -0.87109,-1.375 -0.44198,-0.66082 -0.89482,-1.31535 -1.34766,-1.96876 -0.35689,-0.51778 -0.71269,-1.03546 -1.07031,-1.55273 -0.17448,-0.25338 -0.35203,-0.50465 -0.50586,-0.77148 v -0.002 c -0.0234,-0.0404 -0.0147,-0.0722 0.006,-0.084 z" />
  </g>
  <g
     inkscape:groupmode="layer"
     id="layer2"
     inkscape:label="kapelusz">
    <g
       id="g2901"
       transform="translate(-1.5119048,-2.2678571)">
      <path
         id="path2325"
         style="fill:url(#radialGradient3105);stroke-width:0.265661;fill-opacity:1"
         d="m 179.37426,96.911704 c 16.96371,26.534206 -31.98366,57.159216 -71.4375,57.159216 -39.45384,0 -88.38968,-30.61752 -71.4375,-57.159216 18.441597,-28.873654 31.991587,-57.956608 71.4375,-57.15922 39.98838,0.808354 52.46136,27.477212 71.4375,57.15922 z"
         sodipodi:nodetypes="sssss" />
      <ellipse
         style="fill:url(#linearGradient2897);fill-opacity:1;stroke-width:0.264583"
         id="path2328"
         cx="107.97689"
         cy="130.2939"
         rx="53.186634"
         ry="18.842501" />
    </g>
  </g>
  <g
     inkscape:groupmode="layer"
     id="layer3"
     inkscape:label="kropki">
    <ellipse
       style="fill:url(#radialGradient3154);fill-opacity:1;stroke-width:0.450079"
       id="path2904-3"
       cx="108.23073"
       cy="68.745255"
       rx="29.260414"
       ry="27.559523" />
    <path
       style="color:#000000;font-style:normal;font-variant:normal;font-weight:normal;font-stretch:normal;font-size:medium;line-height:normal;font-family:sans-serif;font-variant-ligatures:normal;font-variant-position:normal;font-variant-caps:normal;font-variant-numeric:normal;font-variant-alternates:normal;font-variant-east-asian:normal;font-feature-settings:normal;font-variation-settings:normal;text-indent:0;text-align:start;text-decoration:none;text-decoration-line:none;text-decoration-style:solid;text-decoration-color:#000000;letter-spacing:normal;word-spacing:normal;text-transform:none;writing-mode:lr-tb;direction:ltr;text-orientation:mixed;dominant-baseline:auto;baseline-shift:baseline;text-anchor:start;white-space:normal;shape-padding:0;shape-margin:0;inline-size:0;clip-rule:nonzero;display:inline;overflow:visible;visibility:visible;opacity:1;isolation:auto;mix-blend-mode:normal;color-interpolation:sRGB;color-interpolation-filters:linearRGB;solid-color:#000000;solid-opacity:1;vector-effect:none;fill:url(#radialGradient3077);fill-opacity:1;fill-rule:nonzero;stroke:none;stroke-width:0.319136;stroke-linecap:butt;stroke-linejoin:miter;stroke-miterlimit:4;stroke-dasharray:none;stroke-dashoffset:0;stroke-opacity:1;color-rendering:auto;image-rendering:auto;shape-rendering:auto;text-rendering:auto;enable-background:accumulate;stop-color:#000000;stop-opacity:1"
       d="m 152.87815,144.23501 c 0,19.32781 -16.17344,26.44149 -44.36673,26.44149 -28.193294,0 -46.237625,-7.89137 -46.237625,-27.21918 0,-19.32781 18.3116,-27.99688 46.504895,-27.99688 28.19329,0 44.09946,9.44676 44.09946,28.77457 z"
       id="path3053"
       sodipodi:nodetypes="sssss"
       inkscape:transform-center-x="-4.8108515"
       inkscape:transform-center-y="6.22153" />
    <path
       style="color:#000000;font-style:normal;font-variant:normal;font-weight:normal;font-stretch:normal;font-size:medium;line-height:normal;font-family:sans-serif;font-variant-ligatures:normal;font-variant-position:normal;font-variant-caps:normal;font-variant-numeric:normal;font-variant-alternates:normal;font-variant-east-asian:normal;font-feature-settings:normal;font-variation-settings:normal;text-indent:0;text-align:start;text-decoration:none;text-decoration-line:none;text-decoration-style:solid;text-decoration-color:#000000;letter-spacing:normal;word-spacing:normal;text-transform:none;writing-mode:lr-tb;direction:ltr;text-orientation:mixed;dominant-baseline:auto;baseline-shift:baseline;text-anchor:start;white-space:normal;shape-padding:0;shape-margin:0;inline-size:0;clip-rule:nonzero;display:inline;overflow:visible;visibility:visible;isolation:auto;mix-blend-mode:normal;color-interpolation:sRGB;color-interpolation-filters:linearRGB;solid-color:#000000;solid-opacity:1;vector-effect:none;fill:url(#radialGradient3113-7);fill-opacity:1;fill-rule:nonzero;stroke:none;stroke-width:0.316987;stroke-linecap:butt;stroke-linejoin:miter;stroke-miterlimit:4;stroke-dasharray:none;stroke-dashoffset:0;stroke-opacity:1;color-rendering:auto;image-rendering:auto;shape-rendering:auto;text-rendering:auto;enable-background:accumulate;stop-color:#000000"
       d="m 142.55651,92.132444 c 6.27831,9.087916 20.64826,12.240166 29.12895,6.38136 8.48068,-5.85881 -0.1092,-15.19424 -6.38751,-24.282151 -6.27831,-9.087916 -9.47119,-17.694149 -17.95188,-11.83534 -8.48068,5.858808 -11.06787,20.648221 -4.78956,29.736131 z"
       id="path2904-2-8"
       sodipodi:nodetypes="sssss" />
    <path
       style="color:#000000;font-style:normal;font-variant:normal;font-weight:normal;font-stretch:normal;font-size:medium;line-height:normal;font-family:sans-serif;font-variant-ligatures:normal;font-variant-position:normal;font-variant-caps:normal;font-variant-numeric:normal;font-variant-alternates:normal;font-variant-east-asian:normal;font-feature-settings:normal;font-variation-settings:normal;text-indent:0;text-align:start;text-decoration:none;text-decoration-line:none;text-decoration-style:solid;text-decoration-color:#000000;letter-spacing:normal;word-spacing:normal;text-transform:none;writing-mode:lr-tb;direction:ltr;text-orientation:mixed;dominant-baseline:auto;baseline-shift:baseline;text-anchor:start;white-space:normal;shape-padding:0;shape-margin:0;inline-size:0;clip-rule:nonzero;display:inline;overflow:visible;visibility:visible;isolation:auto;mix-blend-mode:normal;color-interpolation:sRGB;color-interpolation-filters:linearRGB;solid-color:#000000;solid-opacity:1;vector-effect:none;fill:url(#radialGradient3113-7-7);fill-opacity:1;fill-rule:nonzero;stroke:none;stroke-width:0.316987;stroke-linecap:butt;stroke-linejoin:miter;stroke-miterlimit:4;stroke-dasharray:none;stroke-dashoffset:0;stroke-opacity:1;color-rendering:auto;image-rendering:auto;shape-rendering:auto;text-rendering:auto;enable-background:accumulate;stop-color:#000000"
       d="m 70.727434,90.524778 c -6.27831,9.08791 -19.892308,13.374102 -28.372998,7.515289 -8.48068,-5.85881 -1.241291,-13.449989 4.686618,-22.770248 5.900333,-9.276904 10.41613,-20.339982 18.89682,-14.481173 8.48068,5.858808 11.06787,20.648222 4.78956,29.736132 z"
       id="path2904-2-8-9"
       sodipodi:nodetypes="sssss" />
  </g>
  <g
     inkscape:groupmode="layer"
     id="layer4"
     inkscape:label="twarz">
    <path
       id="path3161"
       style="fill:url(#radialGradient3169);fill-opacity:1;stroke-width:0.303983"
       d="m 95.816125,139.83542 c 0,7.43948 -1.792332,9.30098 -3.821955,9.30098 -2.029622,0 -3.527957,-1.8615 -3.527957,-9.30098 0,-7.43949 1.498335,-7.537 3.527957,-7.537 2.029623,0 3.821955,0.0976 3.821955,7.537 z"
       sodipodi:nodetypes="sssss" />
    <path
       id="path3161-3"
       style="fill:url(#radialGradient3169-4);fill-opacity:1;stroke-width:0.303983"
       d="m 127.95529,141.03813 c 0,7.43948 -1.79234,9.30098 -3.82196,9.30098 -2.02962,0 -3.52796,-1.8615 -3.52796,-9.30098 0,-7.43949 1.49834,-7.537 3.52796,-7.537 2.02962,0 3.82196,0.0976 3.82196,7.537 z"
       sodipodi:nodetypes="sssss" />
  </g>
  <g
     inkscape:groupmode="layer"
     id="layer5"
     inkscape:label="tekst">
    <g
       aria-label="game player"
       id="text3329"
       style="font-style:normal;font-weight:normal;font-size:10.5833px;line-height:1.25;font-family:sans-serif;fill:#000000;fill-opacity:1;stroke:none;stroke-width:0.264583"
       transform="translate(13.175161,-4.6905629)">
      <path
         id="path3331"
         style="font-style:normal;font-variant:normal;font-weight:normal;font-stretch:normal;font-family:Ravie;-inkscape-font-specification:Ravie;stroke-width:0.999999"
         transform="scale(0.26458333)"
         d="m 195.1875,802 c 0.50781,1.92707 0.76172,3.08595 0.76172,3.47656 0,0.16895 -0.0651,0.2016 -0.19531,0.0977 -1.36719,-1.19792 -3.44402,-1.99869 -6.23047,-2.40234 -1.6276,-0.24756 -2.97527,-0.3711 -4.04297,-0.3711 -2.27864,0 -3.89323,0.46225 -4.84375,1.38672 -0.83333,0.79427 -1.25,2.03777 -1.25,3.73047 0,0.88543 0.14973,2.24609 0.44922,4.08203 0.33854,2.1354 1.09375,3.91278 2.26562,5.33203 1.58854,1.94011 3.75001,2.91016 6.48438,2.91016 1.80989,0 3.46354,-0.26693 4.96094,-0.80078 1.67968,-0.61198 2.73437,-1.42581 3.16406,-2.44141 0.052,0.27345 0.0781,0.67708 0.0781,1.21094 0,2.26564 -0.22786,4.37501 -0.68359,6.32812 -0.6901,2.91666 -1.79688,4.75263 -3.32031,5.50782 -1.82291,0.91147 -4.01694,1.36718 -6.58204,1.36718 -2.05728,0 -3.08593,-0.24088 -3.08593,-0.72265 0,-0.32553 0.30599,-0.63148 0.91797,-0.91797 0.3125,-0.14325 1.32813,-0.50781 3.04687,-1.09375 2.57812,-0.87239 3.86719,-2.27215 3.86719,-4.19922 0,-0.84635 -0.5599,-1.53646 -1.67969,-2.07031 -1.15885,-0.53394 -2.67579,-0.80078 -4.55078,-0.80078 -1.3151,-10e-6 -2.66276,0.13021 -4.04297,0.39062 -3.28124,0.63802 -4.92187,1.94663 -4.92187,3.92578 0,0.65102 0.16275,1.47787 0.48828,2.48047 0.42968,1.32813 1.36068,2.48048 2.79297,3.45703 2.40884,1.61458 7.22252,4.05848 11.78906,3.43164 7.35883,-1.01015 21.23764,42.29363 23.45117,40.50977 1.90103,-1.52342 -9.72982,-39.58726 -9.13086,-43.48047 0.15623,-1.04168 -0.26953,-10.94921 -0.26953,-12.04297 0,-4.46612 -1.08074,-8.61327 -3.24219,-12.44141 1.01563,0.55979 1.92058,0.83985 2.71485,0.83985 0.32552,0 0.6901,-0.0649 1.09375,-0.19531 l 0.42968,-4.39454 c -0.52083,0.36469 -1.3086,0.54688 -2.36328,0.54688 -2.64322,0 -5.41668,-0.8789 -8.32031,-2.63672 z m -5.23438,7.32422 c 1.71875,0 3.39845,0.38412 5.03907,1.15234 1.83593,0.87239 2.7539,1.73178 2.7539,2.57813 0,0.46873 -0.48177,0.85931 -1.44531,1.17187 -0.96354,0.29953 -2.23958,0.44922 -3.82812,0.44922 -2.01823,0 -3.94532,-0.37109 -5.78125,-1.11328 -1.82292,-0.75519 -2.73438,-1.51693 -2.73438,-2.28516 0,-0.63802 0.61849,-1.13288 1.85547,-1.48437 1.09375,-0.31268 2.47396,-0.46875 4.14062,-0.46875 z m 6.19727,26.78125 c 0.0206,-0.0118 0.0527,-0.004 0.0762,0.0371 0.15257,0.26434 0.32897,0.51428 0.50196,0.76562 0.3576,0.51731 0.71341,1.03693 1.07031,1.55469 0.45309,0.65378 0.90543,1.30756 1.34765,1.96875 0.30612,0.4501 0.59275,0.91173 0.875,1.37695 0.18892,0.30777 0.36927,0.62223 0.54883,0.93555 0.11947,0.20727 0.23521,0.41486 0.34961,0.625 0.0779,0.14672 0.16164,0.29117 0.24414,0.43555 0.0303,0.0514 0.058,0.10371 0.0859,0.15625 0.0441,0.0828 -0.0399,0.12769 -0.084,0.0449 -0.0275,-0.0518 -0.0561,-0.10403 -0.0859,-0.1543 -0.0828,-0.14464 -0.16395,-0.2901 -0.24219,-0.4375 -0.1141,-0.2095 -0.23048,-0.4163 -0.34961,-0.62304 -0.17918,-0.31257 -0.3603,-0.62438 -0.54883,-0.93164 -0.28154,-0.46406 -0.56574,-0.92608 -0.87109,-1.375 -0.44198,-0.66082 -0.89482,-1.31535 -1.34766,-1.96876 -0.35689,-0.51778 -0.71269,-1.03546 -1.07031,-1.55273 -0.17448,-0.25338 -0.35203,-0.50465 -0.50586,-0.77148 v -0.002 c -0.0234,-0.0404 -0.0147,-0.0722 0.006,-0.084 z" />
      <path
         d="m 63.316866,218.12326 q -0.242878,-0.17053 -0.790647,-0.17053 -0.661456,0 -1.493444,0.21704 -0.831988,0.21704 -1.302242,0.50643 0.180867,-0.86816 0.180867,-1.15755 0,-0.0879 -0.03101,-0.0827 -0.02067,0.005 -0.06718,0.0413 -0.868161,0.71313 -2.072218,0.86816 -0.573607,0.0724 -0.971514,0.0724 -1.178219,0 -1.689814,-0.50126 -0.459919,-0.44959 -0.459919,-1.37976 0,-0.48576 0.09302,-1.0697 0.191202,-1.15755 0.82682,-1.91202 0.764809,-0.894 1.958531,-0.894 1.291906,0 2.516634,1.18855 0,-0.25838 -0.144694,-0.72863 -0.160196,-0.50126 -0.361734,-0.81649 2.542473,-0.38757 3.513987,-0.74414 0.09302,0.32556 0.09302,0.65629 0,0.26872 -0.06201,0.33073 -0.759641,0.25838 -0.759641,0.46509 v 0.0103 q 0,0.17053 0.0155,0.53744 0.0155,0.3669 0.0155,0.56327 0,1.65881 -0.423745,2.73884 0.341063,-0.21187 0.811317,-0.21187 0.248046,0 0.459919,0.0568 z m -3.002391,-2.8887 q 0,-0.21704 -0.434081,-0.36174 -0.459918,-0.15503 -1.198889,-0.15503 -0.966346,0 -1.860346,0.36174 -0.868161,0.35656 -0.868161,0.7183 0,0.28939 0.614948,0.46508 0.552936,0.15503 1.312577,0.15503 0.862994,0 1.669143,-0.41341 0.764809,-0.3979 0.764809,-0.76997 z"
         style="font-style:normal;font-variant:normal;font-weight:normal;font-stretch:normal;font-family:Ravie;-inkscape-font-specification:Ravie;stroke-width:0.264583"
         id="path3333" />
      <path
         d="m 75.858697,214.41807 q 0,1.49345 -1.875849,2.95588 l 1.410762,0.22221 q 0.10852,0.1447 0.294555,0.45475 -0.403075,-0.0207 -1.503779,-0.0207 -1.018023,0 -2.211745,0.0207 0.377237,-0.43924 0.800982,-1.44693 0.459919,-1.09554 0.459919,-1.72082 0,-0.5271 -0.361734,-0.5271 -0.589109,0 -1.255733,0.99218 -0.542601,0.80615 -0.878496,1.82418 0,1.02835 0.134358,1.2919 0.211873,0.0827 0.702797,0.19121 -0.05684,0.0982 -0.201537,0.50642 L 68.55684,218.516 q 0.496092,-0.97151 0.496092,-2.48563 0,-0.68729 -0.02584,-0.86816 -0.08785,-0.62528 -0.428913,-0.62528 -0.129191,0 -0.335896,0.10335 -0.857826,0.42891 -1.250565,1.9792 0.01033,0.49093 0.475421,1.86551 -1.116207,-0.51159 -2.423617,-0.51159 -0.852658,0 -1.173051,0.27905 l 0.02067,-1.19889 q 0.165364,-0.062 0.403074,-0.062 0.39274,0 0.769977,0.17053 -0.434081,-1.04386 -0.780312,-3.61217 -0.05168,-0.34623 -0.392739,-0.40824 -0.315226,-0.0155 -0.625283,-0.0362 -0.191202,-0.0258 -0.191202,-0.63045 h 0.10852 q 0.589109,0 4.144436,-0.1912 -0.547768,1.11621 -0.547768,2.49597 0,0.29972 0.03101,0.50642 0.614947,-2.02571 2.35127,-3.11091 0.454751,-0.28422 0.790647,-0.28422 0.966346,0 0.966346,2.16007 0,0.63562 -0.06718,1.14205 0.490924,-0.84233 1.090369,-1.44177 1.038693,-1.02319 2.149733,-1.02319 0.754473,0 1.250566,0.47542 0.496092,0.47025 0.496092,1.21439 z"
         style="font-style:normal;font-variant:normal;font-weight:normal;font-stretch:normal;font-family:Ravie;-inkscape-font-specification:Ravie;stroke-width:0.264583"
         id="path3335" />
      <path
         d="m 83.558461,214.89866 q 0,0.26355 -0.02067,0.62012 0,0.062 -0.05168,0.0465 -0.878496,-0.19637 -2.878368,-0.52194 -1.777664,-0.28421 -1.860346,-0.28421 -0.118855,0 -0.118855,0.97151 0,1.22473 0.537433,1.82934 0.408243,0.45992 1.049028,0.49092 0.361734,0.0155 0.666624,-0.10852 0.118856,-0.0465 0.118856,-0.093 0,-0.031 -0.06201,-0.0517 -0.676959,-0.12402 -1.105872,-0.50126 -0.428913,-0.3824 -0.428913,-0.9095 0,-0.33073 0.372069,-0.53227 0.377237,-0.2067 1.02319,-0.2067 0.444416,0 0.940508,0.093 1.333248,0.25839 1.333248,1.0697 0,0.22738 -0.124023,0.46509 -0.346231,0.65112 -0.857826,0.93017 -0.744138,0.40308 -2.263421,0.40308 -1.746658,0 -2.790518,-1.29191 -0.894,-1.1007 -0.894,-2.48563 0,-2.55797 4.18061,-2.55797 2.423617,0 2.981721,1.21439 0.253214,0.55294 0.253214,1.41076 z m -1.979201,-1.18855 q 0,-0.28939 -0.377237,-0.47026 -0.377237,-0.18603 -0.997352,-0.18603 -0.723468,0 -1.255733,0.13436 -0.625283,0.15503 -0.625283,0.41857 0,0.66663 2.13423,0.66663 1.121375,0 1.121375,-0.56327 z"
         style="font-style:normal;font-variant:normal;font-weight:normal;font-stretch:normal;font-family:Ravie;-inkscape-font-specification:Ravie;stroke-width:0.264583"
         id="path3337" />
      <path
         d="m 95.826407,214.30438 c 0,0.28595 -0.03101,0.62012 -0.09302,1.00252 -0.113688,0.69247 -0.384127,1.25918 -0.811318,1.70015 -0.499537,0.52021 -1.150657,0.78031 -1.953362,0.78031 -0.906057,0 -1.670866,-0.31867 -2.294427,-0.95601 0.175699,0.80271 0.289387,1.2988 0.341064,1.48828 0.165364,0.58567 -2.808175,7.73161 -3.176627,12.27537 -1.936137,0.26182 2.218825,-10.70777 0.02954,-10.24966 -0.976783,5.97839 0,0.12058 0,0 0,-0.15159 0.871606,-1.33153 0.919836,-1.34875 0.585664,-0.19982 -2.307598,11.62812 -2.307598,11.37663 0,0.0172 2.328271,-11.08038 2.307598,-11.37663 -0.02067,-0.29283 -0.03101,-0.65457 -0.03101,-1.0852 0,-1.63986 0.141248,-2.95244 0.423745,-3.93773 -0.289387,0.17914 -0.571884,0.26871 -0.847491,0.26871 -0.110243,0 -0.204982,-0.0155 -0.284219,-0.0465 l -0.118856,-1.2764 c 0.20326,0.062 -1.54977,-2.44606 -1.250047,-2.44606 0.83371,0 3.441122,3.33488 4.236936,2.91113 -0.141248,0.51332 0,-0.15847 0,0 0.589109,-0.40308 1.231617,-0.64768 1.927524,-0.73381 0.344509,-0.0413 0.664902,-0.062 0.961179,-0.062 0.740693,0 1.271236,0.14986 1.591629,0.44959 0.285942,0.26871 0.428913,0.69073 0.428913,1.26606 z m -1.426265,0.66663 c 0,-0.16881 -0.168809,-0.30489 -0.506427,-0.40824 -0.347954,-0.11025 -0.818208,-0.16537 -1.410762,-0.16537 -0.485757,0 -0.980127,0.12919 -1.483109,0.38757 -0.499537,0.25494 -0.749306,0.4961 -0.749306,0.72347 0,0.12747 0.120578,0.23771 0.361734,0.33073 0.282497,0.10335 0.676959,0.15503 1.183386,0.15503 0.613225,0 1.200612,-0.11197 1.762161,-0.3359 0.561549,-0.22393 0.842323,-0.45302 0.842323,-0.68729 z"
         style="font-style:normal;font-variant:normal;font-weight:normal;font-stretch:normal;font-family:Ravie;-inkscape-font-specification:Ravie;stroke-width:0.264583"
         id="path3339"
         sodipodi:nodetypes="sccsccccscccscsccscccscssscscscsss" />
      <path
         d="m 99.903664,218.43332 q -0.687294,-0.29972 -1.364254,-0.29972 -0.904334,0 -1.906854,0.48575 -0.07235,0.0362 -0.09302,0.0258 -0.02584,-0.0155 -0.0052,-0.0982 0.682127,-2.74918 0.682127,-4.50617 0,-1.53479 -0.39274,-2.94555 -0.06201,-0.21187 -0.289387,-0.29972 -0.175699,-0.062 -0.599444,-0.093 -0.19637,-0.1757 -0.160197,-0.84232 0.03101,0.0103 0.180867,0.0103 0.764809,0 3.37446,-0.28939 0.351399,1.2299 0.351399,2.73368 0,2.76985 -1.038693,4.82656 0.372069,-0.18087 0.749306,-0.18087 0.299722,0 0.511595,0.093 z"
         style="font-style:normal;font-variant:normal;font-weight:normal;font-stretch:normal;font-family:Ravie;-inkscape-font-specification:Ravie;stroke-width:0.264583"
         id="path3341" />
      <path
         d="m 109.19506,218.12326 q -0.24288,-0.17053 -0.79065,-0.17053 -0.66145,0 -1.49344,0.21704 -0.83199,0.21704 -1.30224,0.50643 0.18086,-0.86816 0.18086,-1.15755 0,-0.0879 -0.031,-0.0827 -0.0207,0.005 -0.0672,0.0413 -0.86816,0.71313 -2.07222,0.86816 -0.57361,0.0724 -0.97151,0.0724 -1.17822,0 -1.68982,-0.50126 -0.45992,-0.44959 -0.45992,-1.37976 0,-0.48576 0.093,-1.0697 0.1912,-1.15755 0.82682,-1.91202 0.76481,-0.894 1.95853,-0.894 1.29191,0 2.51664,1.18855 0,-0.25838 -0.1447,-0.72863 -0.16019,-0.50126 -0.36173,-0.81649 2.54247,-0.38757 3.51398,-0.74414 0.093,0.32556 0.093,0.65629 0,0.26872 -0.062,0.33073 -0.75964,0.25838 -0.75964,0.46509 v 0.0103 q 0,0.17053 0.0155,0.53744 0.0155,0.3669 0.0155,0.56327 0,1.65881 -0.42374,2.73884 0.34106,-0.21187 0.81132,-0.21187 0.24804,0 0.45992,0.0568 z m -3.00239,-2.8887 q 0,-0.21704 -0.43408,-0.36174 -0.45992,-0.15503 -1.19889,-0.15503 -0.96635,0 -1.86035,0.36174 -0.86816,0.35656 -0.86816,0.7183 0,0.28939 0.61495,0.46508 0.55293,0.15503 1.31258,0.15503 0.86299,0 1.66914,-0.41341 0.76481,-0.3979 0.76481,-0.76997 z"
         style="font-style:normal;font-variant:normal;font-weight:normal;font-stretch:normal;font-family:Ravie;-inkscape-font-specification:Ravie;stroke-width:0.264583"
         id="path3343" />
      <path
         d="m 118.58464,213.25536 -0.0568,0.60461 q -0.69246,-0.22738 -0.81131,-0.22221 -0.19121,0.0103 -0.31006,0.64595 -0.0879,0.47026 -0.21187,1.80867 -0.1292,1.41077 -0.28422,1.92753 -0.32556,1.0697 -0.89917,1.51411 -0.74414,0.56844 -2.32027,0.56844 -2.41328,0 -3.47781,-0.7183 -0.33589,-0.22737 -0.5736,-0.7028 -0.23255,-0.45991 -0.23255,-0.86299 0,-0.5271 0.5426,-0.80615 0.5116,-0.26355 1.4056,-0.26355 0.91983,0 1.54512,0.34107 0.56844,0.31005 0.56844,0.69762 0,0.78548 -1.10071,1.10071 -0.093,0.0258 -0.78548,0.1602 -0.37723,0.0775 -0.37723,0.17569 0,0.22221 1.14204,0.22221 0.85783,0 1.21956,-0.1912 0.60461,-0.32039 0.94051,-1.02319 0.24288,-0.50126 0.24288,-0.84749 -0.0155,-0.12402 -1.76216,-1.47277 -1.788,-1.38493 -2.36161,-1.68465 -0.19637,0 -1.16788,0.52193 -0.0827,0.0465 -0.0827,-0.0413 0,-0.21704 0.005,-0.56327 0.005,-0.34623 0.005,-0.45475 v -0.29456 q 2.56831,-0.41858 3.93773,-1.14204 0.12919,0.23254 0.40308,0.69763 -0.25838,0.0672 -0.86816,0.15502 0,0.55811 1.00768,1.53479 0.85266,0.82165 1.44694,1.12137 0.28422,-0.42374 0.7338,-1.40559 0.43925,-0.96118 0.43925,-1.14205 -1.0852,0.005 -1.57613,-0.0207 0.0775,-0.32556 0.28422,-1.04902 1.50895,0.0568 3.38997,1.11104 z"
         style="font-style:normal;font-variant:normal;font-weight:normal;font-stretch:normal;font-family:Ravie;-inkscape-font-specification:Ravie;stroke-width:0.264583"
         id="path3345" />
      <path
         d="m 125.78831,214.89866 q 0,0.26355 -0.0207,0.62012 0,0.062 -0.0517,0.0465 -0.8785,-0.19637 -2.87837,-0.52194 -1.77766,-0.28421 -1.86034,-0.28421 -0.11886,0 -0.11886,0.97151 0,1.22473 0.53743,1.82934 0.40825,0.45992 1.04903,0.49092 0.36174,0.0155 0.66663,-0.10852 0.11885,-0.0465 0.11885,-0.093 0,-0.031 -0.062,-0.0517 -0.67696,-0.12402 -1.10587,-0.50126 -0.42892,-0.3824 -0.42892,-0.9095 0,-0.33073 0.37207,-0.53227 0.37724,-0.2067 1.02319,-0.2067 0.44442,0 0.94051,0.093 1.33325,0.25839 1.33325,1.0697 0,0.22738 -0.12402,0.46509 -0.34624,0.65112 -0.85783,0.93017 -0.74414,0.40308 -2.26342,0.40308 -1.74666,0 -2.79052,-1.29191 -0.894,-1.1007 -0.894,-2.48563 0,-2.55797 4.18061,-2.55797 2.42362,0 2.98172,1.21439 0.25322,0.55294 0.25322,1.41076 z m -1.97921,-1.18855 q 0,-0.28939 -0.37723,-0.47026 -0.37724,-0.18603 -0.99735,-0.18603 -0.72347,0 -1.25574,0.13436 -0.62528,0.15503 -0.62528,0.41857 0,0.66663 2.13423,0.66663 1.12137,0 1.12137,-0.56327 z"
         style="font-style:normal;font-variant:normal;font-weight:normal;font-stretch:normal;font-family:Ravie;-inkscape-font-specification:Ravie;stroke-width:0.264583"
         id="path3347" />
      <path
         d="m 134.09785,214.46458 c 0,0.48231 -0.43752,0.83716 -1.31257,1.06453 -0.50643,0.13436 -0.96462,0.20154 -1.37459,0.20154 -0.74759,0 -1.12138,-0.20326 -1.12138,-0.60978 0,-0.46164 0.19293,-0.85266 0.57878,-1.17305 0.30661,-0.25494 0.69591,-0.43925 1.16788,-0.55294 0.0413,-0.0103 0.062,-0.0396 0.062,-0.0879 0,-0.0792 -0.0861,-0.16364 -0.25838,-0.25321 -0.19637,-0.0999 -0.42374,-0.14986 -0.68213,-0.14986 -0.46853,0 -0.88021,0.13091 -1.23506,0.39274 -0.43753,0.32383 -0.65629,0.78203 -0.65629,1.37459 0,0.4892 0.15503,1.23506 0.46509,2.23758 0.0275,0.0861 0.20668,0.16364 0.53743,0.23254 0.36518,0.0724 0.82682,0.12747 1.38493,0.16537 -0.0483,0.21704 5.56281,2.27425 5.49394,2.58086 -0.13436,-0.007 -8.1538,-1.14423 -8.1538,-1.14423 -1.58474,0 -7.49726,5.01729 -9.0441,5.41347 -0.10335,-0.15503 6.04713,-5.88029 5.97823,-6.21446 -0.007,-0.0379 0.0121,-0.0654 0.0568,-0.0827 0.41341,-0.17225 0.62356,-0.25838 0.63045,-0.25838 0.18259,-0.0965 0.27905,-0.21187 0.28939,-0.34623 0.0448,-0.36173 0.0896,-0.72174 0.13436,-1.08003 0.0792,-0.69591 0.11885,-1.23507 0.11885,-1.61747 0,-0.41341 -0.0465,-0.65285 -0.13952,-0.7183 -0.11369,-0.0861 -0.27906,-0.12919 -0.4961,-0.12919 -0.0792,0 -0.22048,0.0172 -0.42374,0.0517 -0.0551,0.0103 -0.0827,0.003 -0.0827,-0.0207 0,-0.0517 -0.0224,-0.2377 -0.0672,-0.5581 -0.0413,-0.32384 -0.062,-0.50471 -0.062,-0.5426 0,-0.0483 0.0293,-0.0655 0.0879,-0.0517 0.29283,0.0792 0.58911,0.11886 0.88884,0.11886 0.73035,0 1.49172,-0.26527 2.28409,-0.79582 -0.0448,0.27217 -0.10164,0.62529 -0.17053,1.05937 0.55121,-0.51677 1.31774,-0.77515 2.29959,-0.77515 1.33325,0 2.21174,0.50126 2.63549,1.50378 0.12402,0.30317 0.18603,0.5581 0.18603,0.76481 z"
         style="font-style:normal;font-variant:normal;font-weight:normal;font-stretch:normal;font-family:Ravie;-inkscape-font-specification:Ravie;stroke-width:0.264583"
         id="path3349"
         sodipodi:nodetypes="scssccscscsccccsccccccscscscscsccscss" />
    </g>
  </g>
</svg>
